<svg xmlns="http://www.w3.org/2000/svg"><symbol fill="none" id="sprite-alerts-close" viewBox="0 0 68 68"><title>close</title><rect width="68" height="68" rx="24" fill="#F9F9F9"/><path d="m34 35.414 6.793 6.793 1.414-1.414L35.414 34l6.793-6.793-1.414-1.414L34 32.586l-6.793-6.793-1.414 1.414L32.586 34l-6.793 6.793 1.414 1.414L34 35.414Z" fill="#EBEBEB"/></symbol><symbol fill="none" id="sprite-application-switcher-applicationSwitcher2DesktopClose" viewBox="0 0 32 32"><title>applicationSwitcher2DesktopClose</title><path d="M0 12C0 5.373 5.373 0 12 0h8c6.627 0 12 5.373 12 12v8c0 6.627-5.373 12-12 12h-8C5.373 32 0 26.627 0 20v-8Z" fill="#BABABA" fill-opacity=".2"/><path d="m20.667 12.274-.94-.94L16 15.061l-3.726-3.727-.94.94 3.726 3.727-3.726 3.726.94.94L16 16.941l3.727 3.726.94-.94-3.727-3.726 3.727-3.727Z" fill="#0A0A0A"/></symbol><symbol fill="none" id="sprite-application-switcher-applicationSwitcherArrow" viewBox="0 0 19 11"><title>applicationSwitcherArrow</title><path d="M17.706 8.97c.63.681.184 1.846-.707 1.846H1.002c-.89 0-1.337-1.165-.707-1.846L8.293.317a.947.947 0 0 1 1.415 0l7.998 8.653Z" fill="#F9F9F9"/></symbol><symbol fill="none" id="sprite-application-switcher-applicationSwitcherClose" viewBox="0 0 32 32"><title>applicationSwitcherClose</title><circle cx="16" cy="16" r="16" fill="#333" opacity=".07"/><path d="m12.007 11.973 8.132 8.132m-8.146-.012 8.131-8.132" stroke="#111" stroke-width="2"/></symbol><symbol fill="none" id="sprite-application-switcher-applicationSwitcherDesktopClose" viewBox="0 0 24 24"><title>applicationSwitcherDesktopClose</title><rect opacity=".07" width="24" height="24" rx="2" fill="#333"/><path stroke="#7E7E7E" stroke-width="2" d="m8.007 7.973 8.132 8.132m-8.146-.012 8.132-8.132"/></symbol><symbol fill="none" id="sprite-application-switcher-placeholderFist" viewBox="0 0 44 33"><title>placeholderFist</title><path d="M27.772 0 0 13.121l4.312 19.752h5.656L8.995 18.73l.88-.278 3.385 14.42h5.889l-.232-17.202.88-.278 2.968 17.48h6.26l1.437-20.818.88-.232 1.53 21.05h8.253L44 3.94 27.772 0Z" fill="#111"/></symbol><symbol fill="none" id="sprite-application-switcher-platform_macintosh_transp" viewBox="0 0 9 10"><title>platform_macintosh_transp</title><path d="M8.83 7.793c-.147.35-.32.671-.52.967-.272.403-.495.682-.667.837-.267.254-.553.384-.859.392-.22 0-.485-.065-.793-.197a2.207 2.207 0 0 0-.854-.195 2.3 2.3 0 0 0-.878.195c-.313.132-.566.2-.758.207-.294.013-.586-.12-.879-.402-.186-.169-.419-.458-.699-.867a6.083 6.083 0 0 1-.738-1.521 5.772 5.772 0 0 1-.31-1.814c0-.67.14-1.248.42-1.732.22-.39.512-.696.879-.921.366-.225.761-.34 1.187-.348.234 0 .54.075.919.222.379.147.622.222.729.222.08 0 .35-.088.808-.262.433-.161.799-.228 1.097-.202.812.068 1.422.4 1.827.997-.726.456-1.085 1.094-1.078 1.913.007.638.23 1.17.669 1.59.199.196.42.348.668.455a7.79 7.79 0 0 1-.17.464ZM6.967.201c0 .5-.176.967-.527 1.399-.424.513-.937.81-1.493.763a1.593 1.593 0 0 1-.011-.189c0-.48.201-.994.56-1.414.178-.213.405-.39.681-.53a1.96 1.96 0 0 1 .78-.23c.007.067.01.135.01.2Z"/></symbol><symbol fill="none" id="sprite-application-switcher-platform_macintosh" viewBox="0 0 9 10"><title>platform_macintosh</title><path d="M8.83 7.793c-.147.35-.32.671-.52.967-.272.403-.495.682-.667.837-.267.254-.553.384-.859.392-.22 0-.485-.065-.793-.197a2.207 2.207 0 0 0-.854-.195 2.3 2.3 0 0 0-.878.195c-.313.132-.566.2-.758.207-.294.013-.586-.12-.879-.402-.186-.169-.419-.458-.699-.867a6.083 6.083 0 0 1-.738-1.521 5.772 5.772 0 0 1-.31-1.814c0-.67.14-1.248.42-1.732.22-.39.512-.696.879-.921.366-.225.761-.34 1.187-.348.234 0 .54.075.919.222.379.147.622.222.729.222.08 0 .35-.088.808-.262.433-.161.799-.228 1.097-.202.812.068 1.422.4 1.827.997-.726.456-1.085 1.094-1.078 1.913.007.638.23 1.17.669 1.59.199.196.42.348.668.455a7.79 7.79 0 0 1-.17.464ZM6.967.201c0 .5-.176.967-.527 1.399-.424.513-.937.81-1.493.763a1.593 1.593 0 0 1-.011-.189c0-.48.201-.994.56-1.414.178-.213.405-.39.681-.53a1.96 1.96 0 0 1 .78-.23c.007.067.01.135.01.2Z" fill="#7E7E7E"/></symbol><symbol fill="none" id="sprite-application-switcher-platform_phone_transp" viewBox="0 0 7 10"><title>platform_phone_transp</title><path d="M2.5 8.125a.624.624 0 1 0 1.249.001.624.624 0 0 0-1.249 0ZM0 .938v8.125C0 9.58.42 10 .938 10h4.375c.517 0 .937-.42.937-.937V.938A.938.938 0 0 0 5.312 0H.938A.938.938 0 0 0 0 .938Zm.938 8.007v-7.89c0-.065.052-.117.117-.117h4.14c.065 0 .117.052.117.117v7.89a.118.118 0 0 1-.117.118h-4.14a.118.118 0 0 1-.117-.118Z"/></symbol><symbol fill="none" id="sprite-application-switcher-platform_phone" viewBox="0 0 7 10"><title>platform_phone</title><path d="M2.5 8.125a.624.624 0 1 0 1.249.001.624.624 0 0 0-1.249 0ZM0 .938v8.125C0 9.58.42 10 .938 10h4.375c.517 0 .937-.42.937-.937V.938A.938.938 0 0 0 5.312 0H.938A.938.938 0 0 0 0 .938Zm.938 8.007v-7.89c0-.065.052-.117.117-.117h4.14c.065 0 .117.052.117.117v7.89a.118.118 0 0 1-.117.118h-4.14a.118.118 0 0 1-.117-.118Z" fill="#7E7E7E"/></symbol><symbol fill="none" id="sprite-application-switcher-platform_switch_transp" viewBox="0 0 11 10"><title>platform_switch_transp</title><path d="M3.015.033a2.584 2.584 0 0 0-2.05 1.884c-.09.35-.097.555-.086 3.27.006 2.492.008 2.55.05 2.742.23 1.038.966 1.777 2.014 2.021.137.031.31.038 1.43.044 1.16.008 1.28.006 1.311-.025.031-.031.033-.43.033-4.961 0-3.358-.006-4.94-.02-4.97C5.676.003 5.64 0 4.427.003c-.985.002-1.281.008-1.412.03ZM4.89 5.002v4.195l-.842-.01c-.777-.009-.86-.013-1.015-.052a1.756 1.756 0 0 1-1.3-1.355c-.046-.209-.046-5.36-.002-5.565A1.778 1.778 0 0 1 2.802.933c.273-.11.4-.122 1.286-.124l.801-.002v4.195Z" fill="#7E7E7E"/><path d="M3.193 2.074c-.13.025-.329.124-.434.217-.218.188-.325.456-.309.77a.651.651 0 0 0 .085.34c.097.2.244.348.445.447a.643.643 0 0 0 .354.083c.164.006.222 0 .332-.037.449-.152.72-.588.643-1.036a.951.951 0 0 0-1.116-.784Z" fill="#7E7E7E"/><path d="M6.726.015c-.009.006-.015 2.25-.015 4.987 0 4.516.002 4.974.033 4.986.056.02 1.663.013 1.862-.008a2.585 2.585 0 0 0 2.14-1.729c.131-.39.127-.286.127-3.261 0-2.375-.004-2.729-.033-2.88A2.57 2.57 0 0 0 8.732.03C8.587.005 8.363 0 7.642 0c-.496 0-.91.005-.916.014Zm2.21 4.51c.324.084.589.33.697.645.068.195.066.48-.002.659a1.022 1.022 0 0 1-.694.641 1.02 1.02 0 0 1-1.22-.691 1.187 1.187 0 0 1 .009-.584 1.005 1.005 0 0 1 1.21-.67Z"/></symbol><symbol fill="none" id="sprite-application-switcher-platform_switch" viewBox="0 0 11 10"><title>platform_switch</title><path d="M3.015.033a2.584 2.584 0 0 0-2.05 1.884c-.09.35-.097.555-.086 3.27.006 2.492.008 2.55.05 2.742.23 1.038.966 1.777 2.014 2.021.137.031.31.038 1.43.044 1.16.008 1.28.006 1.311-.025.031-.031.033-.43.033-4.961 0-3.358-.006-4.94-.02-4.97C5.676.003 5.64 0 4.427.003c-.985.002-1.281.008-1.412.03ZM4.89 5.002v4.195l-.842-.01c-.777-.009-.86-.013-1.015-.052a1.756 1.756 0 0 1-1.3-1.355c-.046-.209-.046-5.36-.002-5.565A1.778 1.778 0 0 1 2.802.933c.273-.11.4-.122 1.286-.124l.801-.002v4.195Z" fill="#7E7E7E"/><path d="M3.193 2.074c-.13.025-.329.124-.434.217-.218.188-.325.456-.309.77a.651.651 0 0 0 .085.34c.097.2.244.348.445.447a.643.643 0 0 0 .354.083c.164.006.222 0 .332-.037.449-.152.72-.588.643-1.036a.951.951 0 0 0-1.116-.784ZM6.726.015c-.009.006-.015 2.25-.015 4.987 0 4.516.002 4.974.033 4.986.056.02 1.663.013 1.862-.008a2.585 2.585 0 0 0 2.14-1.729c.131-.39.127-.286.127-3.261 0-2.375-.004-2.729-.033-2.88A2.57 2.57 0 0 0 8.732.03C8.587.005 8.363 0 7.642 0c-.496 0-.91.005-.916.014Zm2.21 4.51c.324.084.589.33.697.645.068.195.066.48-.002.659a1.022 1.022 0 0 1-.694.641 1.02 1.02 0 0 1-1.22-.691 1.187 1.187 0 0 1 .009-.584 1.005 1.005 0 0 1 1.21-.67Z" fill="#7E7E7E"/></symbol><symbol fill="none" id="sprite-application-switcher-platform_windows_transp" viewBox="0 0 10 10"><title>platform_windows_transp</title><path d="M0 1.416 4.087.86l.002 3.929-4.084.023L0 1.416Zm4.085 3.827.003 3.933-4.085-.56V5.218l4.082.026ZM4.58.79 9.998 0v4.741l-5.418.042V.79ZM10 5.279 9.998 10 4.58 9.238l-.008-3.966L10 5.28Z"/></symbol><symbol fill="none" id="sprite-application-switcher-platform_windows" viewBox="0 0 10 10"><title>platform_windows</title><path d="M0 1.416 4.087.86l.002 3.929-4.084.023L0 1.416Zm4.085 3.827.003 3.933-4.085-.56V5.218l4.082.026ZM4.58.79 9.998 0v4.741l-5.418.042V.79ZM10 5.279 9.998 10 4.58 9.238l-.008-3.966L10 5.28Z" fill="#7E7E7E"/></symbol><symbol fill="none" id="sprite-application-switcher-riotGamesFull" viewBox="0 0 99 32"><title>riotGamesFull</title><path d="M16 32c8.837 0 16-7.163 16-16S24.837 0 16 0 0 7.163 0 16s7.163 16 16 16Z" fill="#333"/><path d="m17.511 7.343-10.649 5.03 1.654 7.574h2.168l-.373-5.422.338-.107 1.298 5.53h2.257l-.088-6.596.337-.107 1.138 6.702h2.4l.551-7.982.338-.089.587 8.071h3.164l1.102-11.093-6.222-1.511Zm-1.813 15.715-.8-2.026 7.59.373-.32 3.253-6.47-1.6Z" fill="#F9F9F9"/><g clip-path="url(#a)" fill="#333"><path d="m95.707 28.573-5.2-.907.027-.737 4.956-.198-.137-1.388H88.82l-.354 3.456 5.282.963.027.652-5.5.227-.136 1.388h7.842l-.273-3.457Zm-50.643-.539-.081 1.247 1.933.056-.027 1.275-4.03-.113.163-3.655 5.555-.141-.082-1.389h-7.188l-.654 6.687h8.169l-.218-4.023-3.54.056Zm34.66 2.465-.026-1.105 3.757-.085.027-1.247-3.812-.113-.027-1.133 5.037-.113.055-1.389h-6.943l-.218 6.687h7.27l-.055-1.389-5.064-.113ZM74.061 32l-.626-6.658h-1.851l-2.669 3.23-2.64-3.23h-1.852L63.769 32h2.179l.19-4.051 2.777 2.776 2.805-2.776.19 4.051h2.151ZM64.94.865h-4.329l-.408 20.653h5.255L64.94.865Zm17.67 0H69.08l-.517 20.653h15.002L82.61.865ZM78.419 17.04l-4.792.17-.164-12.153 5.01.17-.054 11.813ZM98.811 5.398l-.49-4.533H84.98l.109 4.023 4.274.17.436 16.46h5.255l-1.58-16.319 5.337.199Zm-46.695 16.12h5.69l-3.702-9.264 2.968-1.672L55.029.865H40.49L40 5.34l3.267-.113-1.579 16.29h5.092l.136-5.185 3.676-2.096 1.524 7.28Zm-4.9-16.432 4.192-.142.49 4.108-4.819 2.38.136-6.346ZM58.515 32h2.205l-1.742-6.686h-5.174l-1.742 6.687h2.205l.354-1.672 3.567.057.327 1.615Zm-3.622-3.003.436-2.181 2.124-.113.435 2.181-2.995.113Z"/></g><defs><clipPath id="a"><path fill="#fff" transform="translate(40 .865)" d="M0 0h58.811v31.135H0z"/></clipPath></defs></symbol><symbol id="sprite-footer-amazon-music" viewBox="0 0 90 90"><title>amazon-music</title><path d="M59.7 40.5c-.6.4-1.5.7-2.6.7-1.7 0-3.3-.2-4.9-.7-.4-.1-.7-.2-.9-.2-.3 0-.4.2-.4.6v1c0 .3.1.5.2.7.1.1.3.3.6.4 1.6.7 3.4 1 5.4 1 2.1 0 3.7-.5 5-1.5s1.9-2.3 1.9-4c0-1.2-.3-2.1-.9-2.9-.6-.7-1.6-1.4-3-1.9l-2.8-1.1c-1.1-.4-1.9-.8-2.2-1.2-.4-.4-.6-.8-.6-1.5 0-1.5 1.1-2.3 3.4-2.3 1.3 0 2.6.2 3.8.6.4.1.7.2.8.2.3 0 .5-.2.5-.6v-1c0-.3-.1-.5-.2-.7-.1-.2-.3-.3-.6-.4-1.5-.5-3-.8-4.5-.8-1.9 0-3.5.5-4.7 1.4s-1.8 2.2-1.8 3.7c0 2.3 1.3 4 3.9 5l3 1.1c1 .4 1.6.7 2 1.1.4.4.5.8.5 1.4 0 .8-.3 1.5-.9 1.9zM44 26.1v13.3c-1.7 1.1-3.4 1.7-5.1 1.7-1.1 0-1.9-.3-2.4-.9-.5-.6-.7-1.5-.7-2.8V26.1c0-.5-.2-.7-.7-.7H33c-.5 0-.7.2-.7.7v12.4c0 1.7.4 3.1 1.3 4 .9.9 2.2 1.4 3.9 1.4 2.3 0 4.6-.8 6.8-2.4l.2 1.2c0 .3.1.4.3.5.1.1.3.1.6.1h1.5c.5 0 .7-.2.7-.7V26.1c0-.5-.2-.7-.7-.7h-2.1c-.6 0-.8.3-.8.7zM25 43.4h2.1c.5 0 .7-.2.7-.7V30.2c0-1.7-.4-3-1.3-3.9s-2.1-1.4-3.8-1.4c-2.3 0-4.7.8-7 2.5-.8-1.7-2.3-2.5-4.5-2.5s-4.4.8-6.6 2.3l-.2-1.1c0-.3-.1-.4-.3-.5-.1-.1-.3-.1-.5-.1H2c-.5 0-.7.2-.7.7v16.6c0 .5.2.7.7.7h2.1c.5 0 .7-.2.7-.7V29.3c1.7-1 3.4-1.6 5.2-1.6 1 0 1.7.3 2.1.9.4.6.7 1.4.7 2.6v11.5c0 .5.2.7.7.7h2.1c.5 0 .7-.2.7-.7V29.3c1.8-1.1 3.5-1.6 5.2-1.6 1 0 1.7.3 2.1.9s.7 1.4.7 2.6v11.5c0 .5.2.7.7.7zm54.5 13.3c-10.9 4.6-22.8 6.9-33.6 6.9-16 0-31.5-4.4-44-11.7-.2-.1-.4-.2-.6-.2-.7 0-1.1.8-.4 1.5 11.6 10.5 27 16.8 44 16.8 12.2 0 26.3-3.8 36-11 1.7-1.2.3-3-1.4-2.3zm-.3-27.3c.9-1 2.3-1.5 4.3-1.5 1 0 2 .1 2.9.4.3.1.4.1.6.1.3 0 .5-.2.5-.7v-1c0-.3-.1-.6-.2-.7s-.3-.3-.5-.4c-1.3-.3-2.6-.6-3.8-.6-2.8 0-4.9.8-6.5 2.5-1.5 1.6-2.3 4-2.3 7s.7 5.3 2.2 6.9c1.5 1.6 3.6 2.4 6.4 2.4 1.5 0 2.9-.2 4-.7.3-.1.5-.2.6-.4.1-.1.1-.4.1-.7v-1c0-.5-.2-.7-.5-.7-.1 0-.3 0-.5.1-1.1.3-2.2.5-3.2.5-1.9 0-3.3-.5-4.2-1.5-.9-1-1.3-2.6-1.3-4.7v-.5c.1-2.2.5-3.8 1.4-4.8z"/><path d="M83.7 66.1c5.2-4.4 6.6-13.5 5.5-14.9-.5-.6-2.9-1.2-5.9-1.2-3.2 0-7 .7-9.9 2.7-.9.6-.7 1.4.2 1.3 3.1-.4 10.1-1.2 11.4.4 1.2 1.6-1.4 8.2-2.6 11.1-.3.9.4 1.2 1.3.6zM69.8 25.4h-2.1c-.5 0-.7.2-.7.7v16.6c0 .5.2.7.7.7h2.1c.5 0 .7-.2.7-.7V26.1c0-.4-.2-.7-.7-.7zm.6-6.8c-.4-.4-1-.6-1.7-.6s-1.2.2-1.6.6-.6.9-.6 1.5.2 1.2.6 1.5c.4.4.9.6 1.6.6s1.2-.2 1.6-.6.6-.9.6-1.5-.1-1.2-.5-1.5z"/></symbol><symbol id="sprite-footer-apple-music" viewBox="0 0 122.9 122.9"><title>apple-music</title><path d="M104.5 0h-86C8.2 0 0 8.2 0 18.4v86c0 10.2 8.2 18.4 18.4 18.4h86c10.2 0 18.4-8.2 18.4-18.4v-86C122.9 8.2 114.6 0 104.5 0zM91 77.3c0 7-1.2 13.9-8.4 16.6-18.7 6.2-20.9-16.8-7.2-19 7.2-.8 10.8-2.4 10.8-4.8V40.8c-.2-1.9-1.1-2.7-2.9-2.4l-33.1 6.7c-1.6.3-2.4 1.2-2.4 2.6v38.4c0 7-1.2 13.9-8.4 16.6-18.7 6.2-20.9-16.8-7.2-19C39.4 83 43 81.4 43 79V30.2c0-3.8 3.1-4.3 3.1-4.3l40.8-8.4c4.1-1.2 4.1 3.6 4.1 3.6v56.2z"/></symbol><symbol id="sprite-footer-deezer" viewBox="0 0 116 76"><title>deezer</title><path d="M115.3 20.7H90.5v14.5h24.8V20.7zm0-20.2H90.5V15h24.8V.5zm0 40.4H90.5v14.5h24.8V40.9zM25.3 61H.5v14.5h24.8V61zm30 0H30.5v14.5h24.8V61zm30 0H60.5v14.5h24.8V61zm30 0H90.5v14.5h24.8V61zm-30-20.1H60.5v14.5h24.8V40.9zm-30 0H30.5v14.5h24.8V40.9zm0-20.2H30.5v14.5h24.8V20.7z"/></symbol><symbol id="sprite-footer-discord" viewBox="0 0 13.33 15.21"><title>discord</title><path d="M11.77.01H1.56A1.56 1.56 0 0 0 0 1.58v10.29a1.56 1.56 0 0 0 1.56 1.56h8.64l-.4-1.4 1 .9.92.85 1.64 1.45V1.57A1.56 1.56 0 0 0 11.77.01ZM8.83 9.95s-.28-.33-.5-.62a2.4 2.4 0 0 0 1.37-.9 4.85 4.85 0 0 1-.87.45 4.93 4.93 0 0 1-1.11.32 5.42 5.42 0 0 1-2 0 7.23 7.23 0 0 1-1.12-.33 4 4 0 0 1-.56-.26h-.06l-.21-.13a2.39 2.39 0 0 0 1.33.9c-.22.29-.51.63-.51.63a2.75 2.75 0 0 1-2.32-1.16 10.12 10.12 0 0 1 1.1-4.43 3.78 3.78 0 0 1 2.14-.8l.07.09a5.16 5.16 0 0 0-2 1l.45-.22a5.59 5.59 0 0 1 1.73-.48h.13a6.61 6.61 0 0 1 1.54 0 6 6 0 0 1 2.29.73 5.1 5.1 0 0 0-1.9-1l.11-.12a3.78 3.78 0 0 1 2.14.8 10.12 10.12 0 0 1 1.1 4.43 2.78 2.78 0 0 1-2.33 1.16ZM5.29 6.4a.84.84 0 1 0 .77.84.81.81 0 0 0-.77-.84Zm2.78 0a.84.84 0 1 0 .77.84.81.81 0 0 0-.77-.85Z"/></symbol><symbol id="sprite-footer-facebook" viewBox="0 0 15 15"><title>facebook</title><path d="M15 7.54A7.5 7.5 0 1 0 6.33 15V9.73h-1.9V7.54h1.9V5.91a2.65 2.65 0 0 1 2.83-3 12.09 12.09 0 0 1 1.68.14v1.86H9.9a1.09 1.09 0 0 0-1.23 1.18V7.5h2.08l-.33 2.19H8.67v5.27A7.54 7.54 0 0 0 15 7.54Z"/></symbol><symbol id="sprite-footer-instagram" viewBox="0 0 13.26 13.3"><title>instagram</title><path d="M6.67 3.24a3.43 3.43 0 1 0 3.42 3.44 3.43 3.43 0 0 0-3.42-3.44Zm0 5.65a2.22 2.22 0 1 1 2.22-2.22 2.21 2.21 0 0 1-2.22 2.22Z" transform="translate(-.04 .05)" style="fill:#fdfefe;fill-rule:evenodd"/><path d="M11 3.08a.8.8 0 1 1-.8-.8.8.8 0 0 1 .8.8Z" transform="translate(-.04 .05)" style="fill:#fdfefe"/><path d="M6.67 0H3.92A5 5 0 0 0 2.3.31a3.31 3.31 0 0 0-1.18.77 3.31 3.31 0 0 0-.77 1.18A5.29 5.29 0 0 0 0 3.88v5.5A5.22 5.22 0 0 0 .35 11a3.35 3.35 0 0 0 .77 1.19 3.42 3.42 0 0 0 1.18.76 4.75 4.75 0 0 0 1.62.31h5.5a4.75 4.75 0 0 0 1.58-.32 3.15 3.15 0 0 0 1.18-.76A3.35 3.35 0 0 0 13 11a5 5 0 0 0 .31-1.61V3.88A5 5 0 0 0 13 2.26a3.46 3.46 0 0 0-2-2A5 5 0 0 0 9.37 0a26.88 26.88 0 0 1-2.7 0Zm0 1.2h2.69a3.78 3.78 0 0 1 1.24.23 2.21 2.21 0 0 1 1.27 1.27 3.67 3.67 0 0 1 .23 1.23v5.39a3.78 3.78 0 0 1-.23 1.24 2.21 2.21 0 0 1-1.27 1.27 3.77 3.77 0 0 1-1.24.22H4a3.77 3.77 0 0 1-1.24-.22 2.21 2.21 0 0 1-1.27-1.27 3.78 3.78 0 0 1-.23-1.24V3.93a3.67 3.67 0 0 1 .21-1.23 2.21 2.21 0 0 1 1.27-1.27A3.78 3.78 0 0 1 4 1.2c.68.01.89 0 2.67 0Z" transform="translate(-.04 .05)" style="fill:#fdfefe;fill-rule:evenodd"/></symbol><symbol id="sprite-footer-reddit" viewBox="0 0 24 24"><title>reddit</title><path fill="#FFF" d="M14.2 15.3c.1.1.1.2 0 .3-.5.5-1.2.7-2.2.7-1 0-1.8-.2-2.2-.7-.1-.1-.1-.2 0-.3.1-.1.2-.1.3 0 .4.4 1 .6 1.9.6.9 0 1.5-.2 1.9-.6h.3zm-3.4-2.4c0-.5-.4-.9-.9-.9s-.9.4-.9.9.4.9.9.9.9-.4.9-.9zM24 12c0 6.6-5.4 12-12 12S0 18.6 0 12 5.4 0 12 0s12 5.4 12 12zm-5-.1c0-.9-.7-1.5-1.5-1.5-.4 0-.8.2-1.1.4-1.1-.7-2.5-1.1-4.1-1.2l.9-2.7 2.3.5c0 .7.6 1.3 1.3 1.3s1.3-.6 1.3-1.3-.6-1.3-1.3-1.3c-.5 0-1 .3-1.2.8l-2.5-.6c-.1 0-.2 0-.3.1l-1 3c-1.7 0-3.2.5-4.3 1.2-.3-.3-.6-.4-1-.4-.8.1-1.5.8-1.5 1.7 0 .6.3 1.1.8 1.3 0 .2-.1.3-.1.5 0 2.3 2.8 4.1 6.3 4.1s6.3-1.9 6.3-4.1v-.5c.4-.2.7-.7.7-1.3zm-4.9.1c-.5 0-.9.4-.9.9s.4.9.9.9.9-.4.9-.9c.1-.5-.4-.9-.9-.9z"/></symbol><symbol fill="none" id="sprite-footer-riotGamesFull" viewBox="0 0 109 35"><title>riotGamesFull</title><path d="m17.714 31.681-1.576-4.09 15.219.79-.684 6.545-12.96-3.245ZM21.36 0 .062 10.143l3.293 15.284H7.7l-.75-10.932.667-.21 2.612 11.142h4.513l-.167-13.317.667-.21 2.282 13.527h4.78L23.43 9.341l.667-.21 1.181 16.296h6.32l2.224-22.37L21.359 0Zm84.102 31.125-6.06-1.035.027-.8 5.799-.216-.148-1.527h-7.455l-.382 3.834 6.162 1.08.029.706-6.412.252-.158 1.527h8.974l-.376-3.82Zm-57.895-.572-.093 1.384 2.208.075-.029 1.404-4.618-.136.202-4.06 6.352-.15-.093-1.526h-8.204l-.735 7.4h9.346l-.24-4.463-4.096.072Zm39.566 2.717-.045-1.274 4.372-.052.041-1.391-4.464-.055-.045-1.291 5.883-.14.048-1.523h-7.934l-.237 7.4h8.319l-.058-1.528-5.88-.146Zm-6.406 1.673-.735-7.4h-2.111l-3.037 3.527-3.032-3.526H69.7l-.735 7.4h2.48l.238-4.799 3.161 3.271 3.165-3.271.237 4.798h2.481ZM70.3.454h-4.965l-.453 22.877h5.998L70.3.454Zm20.188.008h-15.48l-.602 22.868h17.183L90.488.462Zm-4.801 17.892-5.479.178-.183-13.457 5.729.175-.067 13.104ZM109 5.459l-.552-5.005H93.194l.128 4.458 4.882.172.497 18.247h6.011L102.915 5.25l6.085.21ZM55.624 23.331h6.515l-4.246-10.269 3.389-1.867L58.965.454H42.33l-.545 4.956 3.72-.126-1.795 18.047h5.822l.157-5.752 4.195-2.31 1.74 8.062ZM50.033 5.132l4.785-.162.546 4.559-5.524 2.63.193-7.027Zm12.908 29.811h2.513l-1.986-7.4h-5.896l-1.986 7.4h2.513l.388-1.867 4.079.052.375 1.815Zm-4.15-3.336.505-2.42 2.423-.11.507 2.43-3.434.1Z" fill="#E6E6E6"/></symbol><symbol fill="none" id="sprite-footer-riotLogo-mobile" viewBox="0 0 109 35"><title>riotLogo-mobile</title><path d="m17.714 31.681-1.576-4.09 15.219.79-.684 6.545-12.96-3.245ZM21.36 0 .062 10.143l3.293 15.284H7.7l-.75-10.932.667-.21 2.612 11.142h4.513l-.167-13.317.667-.21 2.282 13.527h4.78L23.43 9.341l.667-.21 1.181 16.296h6.32l2.224-22.37L21.359 0Zm84.102 31.125-6.06-1.035.027-.8 5.799-.216-.148-1.527h-7.455l-.382 3.834 6.162 1.08.029.706-6.412.252-.158 1.527h8.974l-.376-3.82Zm-57.895-.572-.093 1.384 2.208.075-.029 1.404-4.618-.136.202-4.06 6.352-.15-.093-1.526h-8.204l-.735 7.4h9.346l-.24-4.463-4.096.072Zm39.566 2.717-.045-1.274 4.372-.052.041-1.391-4.464-.055-.045-1.291 5.883-.14.048-1.523h-7.934l-.237 7.4h8.319l-.058-1.528-5.88-.146Zm-6.406 1.673-.735-7.4h-2.111l-3.037 3.527-3.032-3.526H69.7l-.735 7.4h2.48l.238-4.799 3.161 3.271 3.165-3.271.237 4.798h2.481ZM70.3.454h-4.965l-.453 22.877h5.998L70.3.454Zm20.188.008h-15.48l-.602 22.868h17.183L90.488.462Zm-4.801 17.892-5.479.178-.183-13.457 5.729.175-.067 13.104ZM109 5.459l-.552-5.005H93.194l.128 4.458 4.882.172.497 18.247h6.011L102.915 5.25l6.085.21ZM55.624 23.331h6.515l-4.246-10.269 3.389-1.867L58.965.454H42.33l-.545 4.956 3.72-.126-1.795 18.047h5.822l.157-5.752 4.195-2.31 1.74 8.062ZM50.033 5.132l4.785-.162.546 4.559-5.524 2.63.193-7.027Zm12.908 29.811h2.513l-1.986-7.4h-5.896l-1.986 7.4h2.513l.388-1.867 4.079.052.375 1.815Zm-4.15-3.336.505-2.42 2.423-.11.507 2.43-3.434.1Z"/></symbol><symbol id="sprite-footer-riotLogo-mobile21" viewBox="0 0 587.93 165"><title>riotLogo-mobile21</title><path d="M98.77.33 0 46.07l24.61 93.66 18.73-2.3-5.15-58.89 6.15-2.74L54.96 136l32.01-3.93-5.69-65 6.09-2.71 11.68 66.23 32.38-3.98-6.23-71.25 6.16-2.74 12.77 72.43 32.01-3.93V19.71L98.77.33zm2.32 142.05 1.63 9.22 73.42 12.24v-30.68l-75.01 9.22h-.04zm144.49-19.22v12.63h15.57a14.84 14.84 0 0 1-1.92 7.31 13 13 0 0 1-5.6 5.11 20 20 0 0 1-8.9 1.8 17.53 17.53 0 0 1-10-2.8 17.87 17.87 0 0 1-6.44-8.14 33.06 33.06 0 0 1-2.27-12.93 31.81 31.81 0 0 1 2.32-12.81 18.14 18.14 0 0 1 6.5-8 17.27 17.27 0 0 1 9.82-2.78 19.31 19.31 0 0 1 5.36.71 14.15 14.15 0 0 1 4.33 2.09 12.92 12.92 0 0 1 3.18 3.29 15.61 15.61 0 0 1 2 4.44h17.27a27.22 27.22 0 0 0-3.46-10.28 28.84 28.84 0 0 0-7.05-8.1 32.6 32.6 0 0 0-9.91-5.29 37.91 37.91 0 0 0-12.06-1.86 37.32 37.32 0 0 0-14 2.6 32.6 32.6 0 0 0-11.36 7.61 35 35 0 0 0-7.61 12.21 46.15 46.15 0 0 0-2.73 16.44q0 11.94 4.54 20.59a32.4 32.4 0 0 0 12.69 13.27 39.84 39.84 0 0 0 35.84.84 28.39 28.39 0 0 0 11.67-11q4.25-7.19 4.24-17.2v-9.76Zm215.03 40.81V88.53h51.67v13.96h-34.62v16.76h27.99v13.96h-27.99v16.8h34.7v13.96h-51.75zm101.83-53.3a9 9 0 0 0-3.54-6.64c-2.09-1.59-5-2.38-8.69-2.38a16.63 16.63 0 0 0-6.26 1 8.62 8.62 0 0 0-3.83 2.78 6.74 6.74 0 0 0-1.33 4 6.2 6.2 0 0 0 .79 3.29 7.27 7.27 0 0 0 2.4 2.45 16.54 16.54 0 0 0 3.7 1.79 40.14 40.14 0 0 0 4.64 1.31l6.63 1.54a47.19 47.19 0 0 1 9.45 3.08 27.46 27.46 0 0 1 7.2 4.68 18.84 18.84 0 0 1 4.58 6.39 20.37 20.37 0 0 1 1.61 8.29 20.65 20.65 0 0 1-3.54 12.11 22.56 22.56 0 0 1-10.15 7.85 41.31 41.31 0 0 1-15.93 2.76 42.69 42.69 0 0 1-16.17-2.81 23.22 23.22 0 0 1-10.72-8.48q-3.83-5.66-4-14.12h16.43a10.68 10.68 0 0 0 7.05 9.94 19.37 19.37 0 0 0 7.24 1.26 18.44 18.44 0 0 0 6.66-1.09 10 10 0 0 0 4.33-3 7.22 7.22 0 0 0 1.57-4.48 6.16 6.16 0 0 0-1.42-4 10.86 10.86 0 0 0-4.14-2.81 42.07 42.07 0 0 0-6.89-2.14l-8.07-1.95q-9.65-2.3-15.23-7.26t-5.54-13.44a19.86 19.86 0 0 1 3.72-12.12 24.74 24.74 0 0 1 10.33-8.11 36.74 36.74 0 0 1 15-2.91 35.62 35.62 0 0 1 14.92 2.91 23.43 23.43 0 0 1 9.91 8.14 21.54 21.54 0 0 1 3.6 12.12Zm-113.99 53.3h-16.87v-57.35l-1.73-.02-17.04 57.37h-16.86l-16.58-57.37-2.15.02v57.35h-16.87V88.53h28.67l14.48 50.56h1.75l14.48-50.56h28.72v75.44zm-114.66 0h18.27l-25.33-75.43h-23.15l-25.37 75.43h18.3l4.93-16.54h27.42Zm-28.43-29.7 8.22-27.65h3.1l8.26 27.65Zm278.58-37.76a4 4 0 0 1-3.67-2.44 4 4 0 0 1 0-3.1 4 4 0 0 1 .85-1.27 4.25 4.25 0 0 1 1.27-.86 4.15 4.15 0 0 1 3.1 0 4.13 4.13 0 0 1 1.27.86 4.08 4.08 0 0 1 .86 1.27 4 4 0 0 1 0 3.1 4.08 4.08 0 0 1-.86 1.27 4 4 0 0 1-1.27.86 4 4 0 0 1-1.55.31Zm0-1.09a2.84 2.84 0 0 0 1.47-.39 2.94 2.94 0 0 0 1.05-1 2.93 2.93 0 0 0 0-2.92 3 3 0 0 0-1.06-1 2.93 2.93 0 0 0-2.92 0 3 3 0 0 0-1 1 2.86 2.86 0 0 0 0 2.92 3 3 0 0 0 1 1 2.83 2.83 0 0 0 1.46.39Zm-1.46-1.15V90.6h1.78a1.52 1.52 0 0 1 .69.15 1.13 1.13 0 0 1 .47.42 1.24 1.24 0 0 1 .17.66 1.16 1.16 0 0 1-.18.66 1 1 0 0 1-.48.41 1.56 1.56 0 0 1-.7.14h-1.2v-.72h1a.52.52 0 0 0 .36-.12.5.5 0 0 0 .14-.37.47.47 0 0 0-.14-.37.52.52 0 0 0-.36-.12h-.55v2.93Zm2.39-1.68.82 1.68h-1.11l-.75-1.68ZM282.41 1.03h17.05v75.44h-17.05zm98.02 37.72q0 12.42-4.71 21a32.67 32.67 0 0 1-12.79 13.17 38.57 38.57 0 0 1-36.31 0 32.75 32.75 0 0 1-12.79-13.2q-4.71-8.66-4.71-21t4.71-21.05a32.67 32.67 0 0 1 12.75-13.14 38.65 38.65 0 0 1 36.31 0 32.67 32.67 0 0 1 12.79 13.17q4.71 8.64 4.71 21.05m-17.35 0a33.35 33.35 0 0 0-2.23-13 17.47 17.47 0 0 0-6.33-8 18.57 18.57 0 0 0-19.45 0 17.57 17.57 0 0 0-6.35 8 38.59 38.59 0 0 0 0 26 17.49 17.49 0 0 0 6.35 8 18.57 18.57 0 0 0 19.45 0 17.39 17.39 0 0 0 6.33-8 33.4 33.4 0 0 0 2.23-13M246.58 50.17l8.76 26.3h18.71l-9.74-28.33h-13.23l-.79-2.44c2.52-.49 6.83-1.25 10.65-3.85a20 20 0 0 0 8.75-16.39 24.15 24.15 0 0 0-3.26-12.75 21.9 21.9 0 0 0-9.36-8.64 32.56 32.56 0 0 0-14.64-3H212v75.4h17.06v-26.3Zm-.32-15.61a19.35 19.35 0 0 1-7.26 1.18h-9.94V14.88h9.91a18.68 18.68 0 0 1 7.25 1.24 9.12 9.12 0 0 1 4.4 3.7 10 10 0 0 1 1.5 5.64 9.65 9.65 0 0 1-1.48 5.55 8.86 8.86 0 0 1-4.38 3.55M382.04 1.03v14h29.3l.8 2.45c-2.48.48-6.67 1.22-10.43 3.7v55.31h16.87v-61.5h19.62v-14Z"/></symbol><symbol id="sprite-footer-spotify" viewBox="0 0 24 24"><title>spotify</title><path d="M12 0a12 12 0 1 0 12 12A12 12 0 0 0 12 0Zm4.7 18c-.2 0-.3-.1-.5-.2a11.25 11.25 0 0 0-5.9-1.5 20.88 20.88 0 0 0-3.6.4c-.2 0-.4.1-.6.1a.79.79 0 0 1-.8-.8c0-.5.2-.8.7-.8a21.18 21.18 0 0 1 4.4-.5 14.06 14.06 0 0 1 6.8 1.8.89.89 0 0 1 .4.8.93.93 0 0 1-.9.7Zm1.2-3.1a2.54 2.54 0 0 1-.7-.2 14 14 0 0 0-7.4-1.9 18.16 18.16 0 0 0-3.7.4 1.08 1.08 0 0 1-.6.1.84.84 0 0 1-.9-.9c0-.6.2-.8.8-1a17.72 17.72 0 0 1 4.5-.7 17 17 0 0 1 8.4 2.2 1.05 1.05 0 0 1 .5.9c0 .7-.3 1.1-.9 1.1Zm1.5-3.5a4.08 4.08 0 0 1-.7-.2 18.7 18.7 0 0 0-8.5-2 17.59 17.59 0 0 0-4.6.6 5.64 5.64 0 0 1-.7.1c-.7.1-1.1-.4-1.1-1.1s.3-1 .8-1.1a25.24 25.24 0 0 1 5.6-.7 22.28 22.28 0 0 1 9.7 2.2 1.44 1.44 0 0 1 .7 1.1 1.19 1.19 0 0 1-1.2 1.09Z"/></symbol><symbol fill="none" id="sprite-footer-tiktok" viewBox="0 0 24 24"><title>tiktok</title><path fill-rule="evenodd" clip-rule="evenodd" d="M12 24c6.627 0 12-5.373 12-12S18.627 0 12 0 0 5.373 0 12s5.373 12 12 12Zm5.653-13.318c.115 0 .23-.007.345-.018H18v-2.33A3.738 3.738 0 0 1 14.552 5h-2.009l-.02 9.774c0 1.2-1.061 2.144-2.262 2.144s-2.175-.972-2.175-2.17c0-1.2.974-2.172 2.175-2.172.067 0 .131.009.196.018l.067.009v-2.096l-.061-.005c-.067-.004-.134-.009-.202-.009A4.257 4.257 0 0 0 6 14.747 4.257 4.257 0 0 0 10.26 19a4.257 4.257 0 0 0 4.261-4.254V8.992a3.745 3.745 0 0 0 3.132 1.69Z" fill="#fff"/></symbol><symbol id="sprite-footer-twitch" viewBox="0 0 13.33 15.56"><title>twitch</title><path d="M10.56 3.05H9.45v3.34h1.11Zm-4.17 0h1.12v3.34H6.39Z"/><path d="M2.78 0 .02 2.78v10h3.34v2.77l2.78-2.77h2.22l5-5V0Zm9.45 7.22-2.21 2.22H7.8l-1.94 1.95V9.44h-2.5V1.11h8.89Z"/></symbol><symbol id="sprite-footer-twitter" viewBox="0 0 1200 1227"><title>twitter</title><path d="M714.163 519.284 1160.89 0h-105.86L667.137 450.887 357.328 0H0l468.492 681.821L0 1226.37h105.866l409.625-476.152 327.181 476.152H1200L714.137 519.284h.026ZM569.165 687.828l-47.468-67.894-377.686-540.24h162.604l304.797 435.991 47.468 67.894 396.2 566.721H892.476L569.165 687.854v-.026Z"/></symbol><symbol fill="none" id="sprite-footer-vk" viewBox="0 0 24 24"><title>vk</title><path fill-rule="evenodd" clip-rule="evenodd" d="M12 24c6.627 0 12-5.373 12-12S18.627 0 12 0 0 5.373 0 12s5.373 12 12 12Zm.785-8.034h-.957s-2.11.112-3.968-1.584c-2.027-1.85-3.817-5.52-3.817-5.52s-.103-.24.01-.357c.125-.13.468-.139.468-.139l2.287-.013s.215.032.37.13a.634.634 0 0 1 .198.236s.37.819.858 1.56c.955 1.446 1.4 1.762 1.725 1.607.472-.225.33-2.044.33-2.044s.009-.66-.238-.954c-.19-.228-.55-.295-.71-.313-.128-.015.083-.277.357-.394.411-.177 1.137-.187 1.996-.18.669.007.861.043 1.123.098.607.129.588.54.547 1.428a19.4 19.4 0 0 0-.027.928c0 .08-.002.166-.005.254-.014.454-.03.975.311 1.168.175.099.604.015 1.675-1.58.508-.755.888-1.644.888-1.644s.083-.158.213-.226c.132-.07.31-.048.31-.048l2.406-.013s.723-.075.84.21c.123.3-.27 1.002-1.253 2.15-.927 1.083-1.38 1.485-1.345 1.839.026.261.321.496.892.96 1.184.963 1.5 1.469 1.575 1.589l.013.022c.53.77-.587.83-.587.83l-2.137.027s-.46.08-1.064-.284c-.315-.19-.624-.5-.919-.797-.45-.452-.866-.87-1.22-.771-.596.165-.578 1.29-.578 1.29s.005.24-.13.368c-.149.14-.437.168-.437.168Z" fill="#FFF"/></symbol><symbol id="sprite-footer-youtube-music" viewBox="0 0 122.88 122.88"><title>youtube-music</title><path d="M61.44 0a61.44 61.44 0 1 0 61.44 61.44A61.44 61.44 0 0 0 61.44 0Zm0 93.56a32.12 32.12 0 1 1 32.12-32.12 32.13 32.13 0 0 1-32.12 32.12Z"/><path d="M61.44 32.12a29.32 29.32 0 1 0 29.32 29.32 29.36 29.36 0 0 0-29.32-29.32ZM50.27 77.5V45.38L77.5 60.74Z"/></symbol><symbol id="sprite-footer-youtube" viewBox="0 0 16.67 11.67"><title>youtube</title><path d="M14.85.36a2.08 2.08 0 0 1 1.47 1.47 20.5 20.5 0 0 1 .34 4 22.19 22.19 0 0 1-.34 4 2.1 2.1 0 0 1-1.47 1.47 51.13 51.13 0 0 1-6.52.34 48.46 48.46 0 0 1-6.52-.36A2.07 2.07 0 0 1 .34 9.82a23.82 23.82 0 0 1 0-8A2.11 2.11 0 0 1 1.81.34a49.68 49.68 0 0 1 6.52-.35 48.31 48.31 0 0 1 6.52.37Zm-3.84 5.48-4.34 2.5v-5Z"/></symbol><symbol id="sprite-navigation-burgerNav" viewBox="0 0 48 48"><title>burgerNav</title><path d="M125.6 119.08a18 18 0 0 1 18-18h12a18 18 0 0 1 18 18v12a18 18 0 0 1-18 18h-12a18 18 0 0 1-18-18Z" transform="translate(-125.6 -101.08)" style="fill:gray;fill-opacity:.2"/><path d="M140.6 119.08h18v2h-18Zm0 5h18v2h-18Zm0 7v-2h18v2Z" transform="translate(-125.6 -101.08)" style="fill:#fcfcfc"/></symbol><symbol id="sprite-navigation-burgerNavClose" viewBox="0 0 48 48"><title>burgerNavClose</title><path d="M125.6 119.08a18 18 0 0 1 18-18h12a18 18 0 0 1 18 18v12a18 18 0 0 1-18 18h-12a18 18 0 0 1-18-18Z" transform="translate(-125.6 -101.08)" style="fill:gray;fill-opacity:.2"/><path d="m156.6 119.49-1.41-1.41-5.59 5.59-5.6-5.59-1.41 1.41 5.59 5.59-5.59 5.59 1.41 1.41 5.59-5.59 5.59 5.59 1.41-1.41-5.59-5.59Z" transform="translate(-125.6 -101.08)" style="fill:#fcfcfc"/></symbol><symbol fill="none" id="sprite-navigation-globeIcon" viewBox="0 0 16 16"><title>globeIcon</title><path d="M7.992 0C3.576 0 0 3.584 0 8s3.576 8 7.992 8C12.416 16 16 12.416 16 8s-3.584-8-8.008-8Zm5.544 4.8h-2.36c-.256-1-.624-1.96-1.104-2.848A6.424 6.424 0 0 1 13.536 4.8ZM8 1.632A11.27 11.27 0 0 1 9.528 4.8H6.472A11.27 11.27 0 0 1 8 1.632ZM1.808 9.6A6.594 6.594 0 0 1 1.6 8c0-.552.08-1.088.208-1.6h2.704A13.212 13.212 0 0 0 4.4 8c0 .544.048 1.072.112 1.6H1.808Zm.656 1.6h2.36c.256 1 .624 1.96 1.104 2.848A6.39 6.39 0 0 1 2.464 11.2Zm2.36-6.4h-2.36a6.39 6.39 0 0 1 3.464-2.848A12.52 12.52 0 0 0 4.824 4.8ZM8 14.368A11.27 11.27 0 0 1 6.472 11.2h3.056A11.27 11.27 0 0 1 8 14.368ZM9.872 9.6H6.128A11.77 11.77 0 0 1 6 8c0-.544.056-1.08.128-1.6h3.744C9.944 6.92 10 7.456 10 8s-.056 1.072-.128 1.6Zm.2 4.448a12.52 12.52 0 0 0 1.104-2.848h2.36a6.424 6.424 0 0 1-3.464 2.848ZM11.488 9.6c.064-.528.112-1.056.112-1.6s-.048-1.072-.112-1.6h2.704c.128.512.208 1.048.208 1.6s-.08 1.088-.208 1.6h-2.704Z" fill="#E8E8E8"/></symbol><symbol fill="none" id="sprite-navigation-logo-riot-fist" viewBox="0 0 32 32"><title>logo-riot-fist</title><path d="M16 32c8.837 0 16-7.163 16-16S24.837 0 16 0 0 7.163 0 16s7.163 16 16 16Z" fill="#F9F9F9"/><path d="m17.511 7.343-10.649 5.03 1.654 7.574h2.168l-.373-5.422.338-.107 1.298 5.529h2.258l-.09-6.596.338-.106 1.138 6.702h2.4l.551-7.982.338-.09.587 8.072h3.164l1.102-11.093-6.222-1.511Zm-1.813 15.715-.8-2.027 7.591.374-.32 3.253-6.471-1.6Z" fill="#111"/></symbol><symbol id="sprite-navigation-mainLogoRiotFist" viewBox="0 0 75.89 24"><title>mainLogoRiotFist</title><g class="cls-2"><path class="cls-3" d="m69.31 20.67 4.22.71.26 2.63h-6.26l.11-1 4.48-.18v-.48l-4.3-.74.26-2.64h5.21l.1 1.05-4 .15Zm-36.23 1.27.06-1H36l.17 3.06h-6.52l.51-5.08h5.71l.07 1.05-4.43.1-.14 2.79 3.22.09v-1Zm27.63.04v.87l4.1.1v1H59l.17-5.08h5.53v1.05l-4.1.09v.89h3.11v1Z"/><path class="cls-4" d="M43.87 24h1.75l-1.39-5.08h-4.11L38.74 24h1.75l.27-1.28h2.85Zm-2.9-2.25.35-1.66 1.69-.08.36 1.67Z"/><path class="cls-3" d="m56.28 24-.52-5.08h-1.47l-2.12 2.42-2.11-2.42h-1.48L48.07 24h1.73l.17-3.29 2.2 2.24 2.21-2.24.17 3.29Z"/><path class="cls-4" d="M43.2 16.03h-4.55l-1.21-5.54-2.93 1.59-.1 3.95h-4.07l1.26-12.4-2.6.09.38-3.41h11.61l1.61 7.38-2.36 1.28ZM38.09 3.42l-3.34.11-.13 4.82 3.85-1.8Z"/><path class="cls-3" d="M48.87.31h-3.46l-.32 15.72h4.19Zm26.64 0 .36 3.44-4.24-.14 1.24 12.42h-4.19l-.35-12.54-3.41-.11-.09-3.07Z"/><path class="cls-4" d="M52.18.32h10.8l.77 15.71h-12Zm3.63 12.43 3.82-.12v-9l-4-.12Z"/><path class="cls-3" d="m0 6.97 14.86-7 8.69 2.1L22 17.44h-4.41l-.82-11.2-.47.15-.78 11.05h-3.34l-1.59-9.29-.47.14.12 9.15H7.09L5.27 9.78l-.47.15.53 7.51h-3Zm11.22 11.98 1.09 2.81 9 2.23.47-4.49Z"/></g></symbol><symbol id="sprite-navigation-mainLogoRiotFist21" viewBox="0 0 587.93 165"><title>mainLogoRiotFist21</title><path d="M98.77.33 0 46.07l24.61 93.66 18.73-2.3-5.15-58.89 6.15-2.74L54.96 136l32.01-3.93-5.69-65 6.09-2.71 11.68 66.23 32.38-3.98-6.23-71.25 6.16-2.74 12.77 72.43 32.01-3.93V19.71L98.77.33zm2.32 142.05 1.63 9.22 73.42 12.24v-30.68l-75.01 9.22h-.04zm144.49-19.22v12.63h15.57a14.84 14.84 0 0 1-1.92 7.31 13 13 0 0 1-5.6 5.11 20 20 0 0 1-8.9 1.8 17.53 17.53 0 0 1-10-2.8 17.87 17.87 0 0 1-6.44-8.14 33.06 33.06 0 0 1-2.27-12.93 31.81 31.81 0 0 1 2.32-12.81 18.14 18.14 0 0 1 6.5-8 17.27 17.27 0 0 1 9.82-2.78 19.31 19.31 0 0 1 5.36.71 14.15 14.15 0 0 1 4.33 2.09 12.92 12.92 0 0 1 3.18 3.29 15.61 15.61 0 0 1 2 4.44h17.27a27.22 27.22 0 0 0-3.46-10.28 28.84 28.84 0 0 0-7.05-8.1 32.6 32.6 0 0 0-9.91-5.29 37.91 37.91 0 0 0-12.06-1.86 37.32 37.32 0 0 0-14 2.6 32.6 32.6 0 0 0-11.36 7.61 35 35 0 0 0-7.61 12.21 46.15 46.15 0 0 0-2.73 16.44q0 11.94 4.54 20.59a32.4 32.4 0 0 0 12.69 13.27 39.84 39.84 0 0 0 35.84.84 28.39 28.39 0 0 0 11.67-11q4.25-7.19 4.24-17.2v-9.76Zm215.03 40.81V88.53h51.67v13.96h-34.62v16.76h27.99v13.96h-27.99v16.8h34.7v13.96h-51.75zm101.83-53.3a9 9 0 0 0-3.54-6.64c-2.09-1.59-5-2.38-8.69-2.38a16.63 16.63 0 0 0-6.26 1 8.62 8.62 0 0 0-3.83 2.78 6.74 6.74 0 0 0-1.33 4 6.2 6.2 0 0 0 .79 3.29 7.27 7.27 0 0 0 2.4 2.45 16.54 16.54 0 0 0 3.7 1.79 40.14 40.14 0 0 0 4.64 1.31l6.63 1.54a47.19 47.19 0 0 1 9.45 3.08 27.46 27.46 0 0 1 7.2 4.68 18.84 18.84 0 0 1 4.58 6.39 20.37 20.37 0 0 1 1.61 8.29 20.65 20.65 0 0 1-3.54 12.11 22.56 22.56 0 0 1-10.15 7.85 41.31 41.31 0 0 1-15.93 2.76 42.69 42.69 0 0 1-16.17-2.81 23.22 23.22 0 0 1-10.72-8.48q-3.83-5.66-4-14.12h16.43a10.68 10.68 0 0 0 7.05 9.94 19.37 19.37 0 0 0 7.24 1.26 18.44 18.44 0 0 0 6.66-1.09 10 10 0 0 0 4.33-3 7.22 7.22 0 0 0 1.57-4.48 6.16 6.16 0 0 0-1.42-4 10.86 10.86 0 0 0-4.14-2.81 42.07 42.07 0 0 0-6.89-2.14l-8.07-1.95q-9.65-2.3-15.23-7.26t-5.54-13.44a19.86 19.86 0 0 1 3.72-12.12 24.74 24.74 0 0 1 10.33-8.11 36.74 36.74 0 0 1 15-2.91 35.62 35.62 0 0 1 14.92 2.91 23.43 23.43 0 0 1 9.91 8.14 21.54 21.54 0 0 1 3.6 12.12Zm-113.99 53.3h-16.87v-57.35l-1.73-.02-17.04 57.37h-16.86l-16.58-57.37-2.15.02v57.35h-16.87V88.53h28.67l14.48 50.56h1.75l14.48-50.56h28.72v75.44zm-114.66 0h18.27l-25.33-75.43h-23.15l-25.37 75.43h18.3l4.93-16.54h27.42Zm-28.43-29.7 8.22-27.65h3.1l8.26 27.65Zm278.58-37.76a4 4 0 0 1-3.67-2.44 4 4 0 0 1 0-3.1 4 4 0 0 1 .85-1.27 4.25 4.25 0 0 1 1.27-.86 4.15 4.15 0 0 1 3.1 0 4.13 4.13 0 0 1 1.27.86 4.08 4.08 0 0 1 .86 1.27 4 4 0 0 1 0 3.1 4.08 4.08 0 0 1-.86 1.27 4 4 0 0 1-1.27.86 4 4 0 0 1-1.55.31Zm0-1.09a2.84 2.84 0 0 0 1.47-.39 2.94 2.94 0 0 0 1.05-1 2.93 2.93 0 0 0 0-2.92 3 3 0 0 0-1.06-1 2.93 2.93 0 0 0-2.92 0 3 3 0 0 0-1 1 2.86 2.86 0 0 0 0 2.92 3 3 0 0 0 1 1 2.83 2.83 0 0 0 1.46.39Zm-1.46-1.15V90.6h1.78a1.52 1.52 0 0 1 .69.15 1.13 1.13 0 0 1 .47.42 1.24 1.24 0 0 1 .17.66 1.16 1.16 0 0 1-.18.66 1 1 0 0 1-.48.41 1.56 1.56 0 0 1-.7.14h-1.2v-.72h1a.52.52 0 0 0 .36-.12.5.5 0 0 0 .14-.37.47.47 0 0 0-.14-.37.52.52 0 0 0-.36-.12h-.55v2.93Zm2.39-1.68.82 1.68h-1.11l-.75-1.68ZM282.41 1.03h17.05v75.44h-17.05zm98.02 37.72q0 12.42-4.71 21a32.67 32.67 0 0 1-12.79 13.17 38.57 38.57 0 0 1-36.31 0 32.75 32.75 0 0 1-12.79-13.2q-4.71-8.66-4.71-21t4.71-21.05a32.67 32.67 0 0 1 12.75-13.14 38.65 38.65 0 0 1 36.31 0 32.67 32.67 0 0 1 12.79 13.17q4.71 8.64 4.71 21.05m-17.35 0a33.35 33.35 0 0 0-2.23-13 17.47 17.47 0 0 0-6.33-8 18.57 18.57 0 0 0-19.45 0 17.57 17.57 0 0 0-6.35 8 38.59 38.59 0 0 0 0 26 17.49 17.49 0 0 0 6.35 8 18.57 18.57 0 0 0 19.45 0 17.39 17.39 0 0 0 6.33-8 33.4 33.4 0 0 0 2.23-13M246.58 50.17l8.76 26.3h18.71l-9.74-28.33h-13.23l-.79-2.44c2.52-.49 6.83-1.25 10.65-3.85a20 20 0 0 0 8.75-16.39 24.15 24.15 0 0 0-3.26-12.75 21.9 21.9 0 0 0-9.36-8.64 32.56 32.56 0 0 0-14.64-3H212v75.4h17.06v-26.3Zm-.32-15.61a19.35 19.35 0 0 1-7.26 1.18h-9.94V14.88h9.91a18.68 18.68 0 0 1 7.25 1.24 9.12 9.12 0 0 1 4.4 3.7 10 10 0 0 1 1.5 5.64 9.65 9.65 0 0 1-1.48 5.55 8.86 8.86 0 0 1-4.38 3.55M382.04 1.03v14h29.3l.8 2.45c-2.48.48-6.67 1.22-10.43 3.7v55.31h16.87v-61.5h19.62v-14Z"/></symbol><symbol fill="none" id="sprite-navigation-mainMenuDownHover" viewBox="0 0 8 5"><title>mainMenuDownHover</title><path d="m.707 1.707 2.586 2.586a1 1 0 0 0 1.414 0l2.586-2.586C7.923 1.077 7.477 0 6.586 0H1.414C.524 0 .077 1.077.707 1.707Z" fill="#fff"/></symbol><symbol id="sprite-navigation-mainMenuDownNonHover" viewBox="0 0 8 5"><title>mainMenuDownNonHover</title><path d="m.707 1.707 2.586 2.586a1 1 0 0 0 1.414 0l2.586-2.586C7.923 1.077 7.477 0 6.586 0H1.414C.524 0 .077 1.077.707 1.707Z"/></symbol><symbol style="enable-background:new 0 0 8 5" id="sprite-navigation-mainMenuUpNonHover" viewBox="0 0 8 5"><title>mainMenuUpNonHover</title><path class="st0" d="M7.3 2.9 4.7.3c-.4-.4-1-.4-1.4 0L.7 2.9c-.6.6-.2 1.7.7 1.7h5.2c.9 0 1.3-1.1.7-1.7z"/></symbol><symbol style="enable-background:new 0 0 8 5" id="sprite-navigation-mainMenuUpNonHoverNonBg" viewBox="0 0 8 5"><title>mainMenuUpNonHoverNonBg</title><path d="M7.3 2.9 4.7.3c-.4-.4-1-.4-1.4 0L.7 2.9c-.6.6-.2 1.7.7 1.7h5.2c.9 0 1.3-1.1.7-1.7z"/></symbol><symbol fill="none" id="sprite-navigation-mainNavArrowDown" viewBox="0 0 8 5"><title>mainNavArrowDown</title><path d="m.707 1.707 2.586 2.586a1 1 0 0 0 1.414 0l2.586-2.586C7.923 1.077 7.477 0 6.586 0H1.414C.524 0 .077 1.077.707 1.707Z" fill="#7E7E7E"/></symbol><symbol fill="none" id="sprite-navigation-mainNavArrowDownHover" viewBox="0 0 8 5"><title>mainNavArrowDownHover</title><path d="m.707 1.707 2.586 2.586a1 1 0 0 0 1.414 0l2.586-2.586C7.923 1.077 7.477 0 6.586 0H1.414C.524 0 .077 1.077.707 1.707Z" fill="#fff"/></symbol><symbol fill="none" id="sprite-navigation-mainNavArrowUp" viewBox="0 0 8 5"><title>mainNavArrowUp</title><path class="st0" d="M7.3 2.9 4.7.3c-.4-.4-1-.4-1.4 0L.7 2.9c-.6.6-.2 1.7.7 1.7h5.2c.9 0 1.3-1.1.7-1.7z"/></symbol><symbol fill="none" id="sprite-navigation-mainNavLinkOut" viewBox="0 0 16 16"><title>mainNavLinkOut</title><path fill-rule="evenodd" clip-rule="evenodd" d="M12.916 4.158c0-.277-.116-.55-.32-.753a1.073 1.073 0 0 0-.752-.32H3.428l.144 2h5.93l-6.803 6.803 1.414 1.414L10.916 6.5v5.928l2 .144V4.158Z" fill="#737373"/></symbol><symbol fill="none" id="sprite-navigation-mainNavLinkOutWhite" viewBox="0 0 8 8"><title>mainNavLinkOutWhite</title><path d="M7 2.023v3.985h1V0H2v.996h4L0 7.004V8h1l6-5.977Z" fill="#FFF"/></symbol><symbol fill="none" id="sprite-navigation-serviceStatus-error-hover" viewBox="0 0 24 24"><title>serviceStatus-error-hover</title><rect x="12" y=".75" width="15.865" height="15.955" rx="2" transform="rotate(45 12 .75)" fill="#800F8A"/><path d="M12.965 12.948h-1.913L10.824 8h2.37l-.229 4.948Zm-.957.59c.168 0 .325.033.473.1a1.25 1.25 0 0 1 .667.656 1.135 1.135 0 0 1 0 .943c-.065.15-.154.28-.268.393a1.33 1.33 0 0 1-.399.269 1.181 1.181 0 0 1-.957 0 1.31 1.31 0 0 1-.672-.662 1.135 1.135 0 0 1 0-.943 1.262 1.262 0 0 1 .673-.656c.151-.067.313-.1.483-.1Z" fill="#111"/></symbol><symbol fill="none" id="sprite-navigation-serviceStatus-error" viewBox="0 0 24 24"><title>serviceStatus-error</title><rect x="12" y=".75" width="15.865" height="15.955" rx="2" transform="rotate(45 12 .75)" fill="#D950E5"/><path d="M12.965 12.948h-1.913L10.824 8h2.37l-.229 4.948Zm-.957.59c.168 0 .325.033.473.1a1.25 1.25 0 0 1 .667.656 1.135 1.135 0 0 1 0 .943c-.065.15-.154.28-.268.393a1.33 1.33 0 0 1-.399.269 1.181 1.181 0 0 1-.957 0 1.31 1.31 0 0 1-.672-.662 1.135 1.135 0 0 1 0-.943 1.262 1.262 0 0 1 .673-.656c.151-.067.313-.1.483-.1Z" fill="#111"/></symbol><symbol fill="none" id="sprite-navigation-serviceStatus-info-hover" viewBox="0 0 24 24"><title>serviceStatus-info-hover</title><rect x="12" y=".75" width="15.865" height="15.955" rx="2" transform="rotate(45 12 .75)" fill="#E8E8E8"/><path d="M12.965 12.948h-1.913L10.824 8h2.37l-.229 4.948Zm-.957.59c.168 0 .325.033.473.1a1.25 1.25 0 0 1 .667.656 1.135 1.135 0 0 1 0 .943c-.065.15-.154.28-.268.393a1.33 1.33 0 0 1-.399.269 1.181 1.181 0 0 1-.957 0 1.31 1.31 0 0 1-.672-.662 1.135 1.135 0 0 1 0-.943 1.262 1.262 0 0 1 .673-.656c.151-.067.313-.1.483-.1Z" fill="#111"/></symbol><symbol fill="none" id="sprite-navigation-serviceStatus-info" viewBox="0 0 24 24"><title>serviceStatus-info</title><rect x="12" y=".75" width="15.865" height="15.955" rx="2" transform="rotate(45 12 .75)" fill="#E8E8E8"/><path d="M12.965 12.948h-1.913L10.824 8h2.37l-.229 4.948Zm-.957.59c.168 0 .325.033.473.1a1.25 1.25 0 0 1 .667.656 1.135 1.135 0 0 1 0 .943c-.065.15-.154.28-.268.393a1.33 1.33 0 0 1-.399.269 1.181 1.181 0 0 1-.957 0 1.31 1.31 0 0 1-.672-.662 1.135 1.135 0 0 1 0-.943 1.262 1.262 0 0 1 .673-.656c.151-.067.313-.1.483-.1Z" fill="#111"/></symbol><symbol fill="none" id="sprite-navigation-serviceStatus-warn-hover" viewBox="0 0 24 24"><title>serviceStatus-warn-hover</title><rect x="12" y=".75" width="15.865" height="15.955" rx="2" transform="rotate(45 12 .75)" fill="#E69700"/><path d="M12.965 12.948h-1.913L10.824 8h2.37l-.229 4.948Zm-.957.59c.168 0 .325.033.473.1a1.25 1.25 0 0 1 .667.656 1.135 1.135 0 0 1 0 .943c-.065.15-.154.28-.268.393a1.33 1.33 0 0 1-.399.269 1.181 1.181 0 0 1-.957 0 1.31 1.31 0 0 1-.672-.662 1.135 1.135 0 0 1 0-.943 1.262 1.262 0 0 1 .673-.656c.151-.067.313-.1.483-.1Z" fill="#111"/></symbol><symbol fill="none" id="sprite-navigation-serviceStatus-warn" viewBox="0 0 24 24"><title>serviceStatus-warn</title><rect x="12" y=".75" width="15.865" height="15.955" rx="2" transform="rotate(45 12 .75)" fill="#E69700"/><path d="M12.965 12.948h-1.913L10.824 8h2.37l-.229 4.948Zm-.957.59c.168 0 .325.033.473.1a1.25 1.25 0 0 1 .667.656 1.135 1.135 0 0 1 0 .943c-.065.15-.154.28-.268.393a1.33 1.33 0 0 1-.399.269 1.181 1.181 0 0 1-.957 0 1.31 1.31 0 0 1-.672-.662 1.135 1.135 0 0 1 0-.943 1.262 1.262 0 0 1 .673-.656c.151-.067.313-.1.483-.1Z" fill="#111"/></symbol><symbol fill="none" id="sprite-navigation-square-close" viewBox="0 0 24 24"><title>square-close</title><rect opacity=".07" width="24" height="24" rx="2" fill="#F9F9F9"/><path stroke="#7E7E7E" stroke-width="2" d="m7.906 7.793 8 8m-7.816 0 8-8"/></symbol><symbol fill="none" id="sprite-navigation-subMenuBack" viewBox="0 0 5 8"><title>subMenuBack</title><path d="M3.293 7.293.707 4.707a1 1 0 0 1 0-1.414L3.293.707C3.923.077 5 .523 5 1.414v5.172c0 .89-1.077 1.337-1.707.707Z" fill="#7E7E7E"/></symbol><symbol fill="none" id="sprite-navigation-subMenuRight" viewBox="0 0 5 9"><title>subMenuRight</title><path d="m1.707 7.793 2.586-2.586a1 1 0 0 0 0-1.414L1.707 1.207C1.077.577 0 1.023 0 1.914v5.172c0 .89 1.077 1.337 1.707.707Z" fill="#7E7E7E"/></symbol></svg>